<mxfile host="app.diagrams.net" modified="2022-10-18T12:26:11.228Z" agent="5.0 (X11)" etag="omwFjDi-XhWyFRhz9wlI" version="20.4.1" type="github">
  <diagram id="5zIdU9VKftdZB8uhH7lb" name="Page-1">
    <mxGraphModel dx="4544" dy="1640" grid="1" gridSize="10" guides="1" tooltips="1" connect="1" arrows="1" fold="1" page="1" pageScale="1" pageWidth="850" pageHeight="1100" math="0" shadow="0">
      <root>
        <mxCell id="0" />
        <mxCell id="1" parent="0" />
        <mxCell id="n4nF7EyZrVtlMcvR7X5o-77" value="" style="ellipse;whiteSpace=wrap;html=1;shadow=0;fontSize=12;fillColor=#99FFFF;" parent="1" vertex="1">
          <mxGeometry x="280" y="80" width="680" height="290" as="geometry" />
        </mxCell>
        <mxCell id="n4nF7EyZrVtlMcvR7X5o-73" value="" style="ellipse;whiteSpace=wrap;html=1;shadow=0;fillColor=#FF9999;" parent="1" vertex="1">
          <mxGeometry x="-980" y="433" width="2840" height="1780" as="geometry" />
        </mxCell>
        <mxCell id="n4nF7EyZrVtlMcvR7X5o-71" value="" style="ellipse;whiteSpace=wrap;html=1;shadow=0;fillColor=#FF6666;" parent="1" vertex="1">
          <mxGeometry x="890" y="730" width="800" height="690" as="geometry" />
        </mxCell>
        <mxCell id="n4nF7EyZrVtlMcvR7X5o-65" value="" style="ellipse;whiteSpace=wrap;html=1;fillColor=#FF6666;shadow=0;" parent="1" vertex="1">
          <mxGeometry x="-550" y="760" width="890" height="690" as="geometry" />
        </mxCell>
        <mxCell id="n4nF7EyZrVtlMcvR7X5o-10" style="edgeStyle=orthogonalEdgeStyle;rounded=0;orthogonalLoop=1;jettySize=auto;html=1;exitX=0;exitY=0.5;exitDx=0;exitDy=0;exitPerimeter=0;" parent="1" source="n4nF7EyZrVtlMcvR7X5o-1" edge="1">
          <mxGeometry relative="1" as="geometry">
            <mxPoint x="-210" y="407" as="targetPoint" />
          </mxGeometry>
        </mxCell>
        <mxCell id="n4nF7EyZrVtlMcvR7X5o-80" style="edgeStyle=orthogonalEdgeStyle;rounded=0;orthogonalLoop=1;jettySize=auto;html=1;exitX=0.88;exitY=0.1;exitDx=0;exitDy=0;exitPerimeter=0;fontSize=12;entryX=0;entryY=0.472;entryDx=0;entryDy=0;entryPerimeter=0;" parent="1" source="n4nF7EyZrVtlMcvR7X5o-1" target="n4nF7EyZrVtlMcvR7X5o-77" edge="1">
          <mxGeometry relative="1" as="geometry" />
        </mxCell>
        <mxCell id="n4nF7EyZrVtlMcvR7X5o-1" value="" style="shape=mxgraph.cisco.routers.atm_router;sketch=0;html=1;pointerEvents=1;dashed=0;fillColor=#036897;strokeColor=#ffffff;strokeWidth=2;verticalLabelPosition=bottom;verticalAlign=top;align=center;outlineConnect=0;" parent="1" vertex="1">
          <mxGeometry x="-70" y="380" width="78" height="50" as="geometry" />
        </mxCell>
        <mxCell id="n4nF7EyZrVtlMcvR7X5o-3" value="RED-SCR" style="text;html=1;strokeColor=none;fillColor=none;align=center;verticalAlign=middle;whiteSpace=wrap;rounded=0;" parent="1" vertex="1">
          <mxGeometry x="-61" y="360" width="60" height="30" as="geometry" />
        </mxCell>
        <mxCell id="n4nF7EyZrVtlMcvR7X5o-17" style="edgeStyle=orthogonalEdgeStyle;rounded=0;orthogonalLoop=1;jettySize=auto;html=1;exitX=0.5;exitY=0;exitDx=0;exitDy=0;entryX=0.5;entryY=0;entryDx=0;entryDy=0;entryPerimeter=0;" parent="1" source="n4nF7EyZrVtlMcvR7X5o-73" target="n4nF7EyZrVtlMcvR7X5o-16" edge="1">
          <mxGeometry relative="1" as="geometry">
            <mxPoint x="329" y="433" as="sourcePoint" />
            <Array as="points">
              <mxPoint x="440" y="587" />
              <mxPoint x="329" y="587" />
            </Array>
          </mxGeometry>
        </mxCell>
        <mxCell id="n4nF7EyZrVtlMcvR7X5o-8" value="DMZ" style="text;html=1;strokeColor=none;fillColor=none;align=center;verticalAlign=middle;whiteSpace=wrap;rounded=0;" parent="1" vertex="1">
          <mxGeometry x="590" y="90" width="60" height="30" as="geometry" />
        </mxCell>
        <mxCell id="n4nF7EyZrVtlMcvR7X5o-9" value="172.16.120.1/30" style="text;html=1;strokeColor=none;fillColor=none;align=center;verticalAlign=middle;whiteSpace=wrap;rounded=0;" parent="1" vertex="1">
          <mxGeometry x="-150" y="380" width="60" height="30" as="geometry" />
        </mxCell>
        <mxCell id="n4nF7EyZrVtlMcvR7X5o-11" value="172.16.101.30/27" style="text;html=1;strokeColor=none;fillColor=none;align=center;verticalAlign=middle;whiteSpace=wrap;rounded=0;rotation=0;" parent="1" vertex="1">
          <mxGeometry x="30" y="360" width="60" height="30" as="geometry" />
        </mxCell>
        <mxCell id="n4nF7EyZrVtlMcvR7X5o-12" value="" style="shape=mxgraph.cisco.computers_and_peripherals.pc;sketch=0;html=1;pointerEvents=1;dashed=0;fillColor=#036897;strokeColor=#ffffff;strokeWidth=2;verticalLabelPosition=bottom;verticalAlign=top;align=center;outlineConnect=0;" parent="1" vertex="1">
          <mxGeometry x="470" y="190" width="78" height="70" as="geometry" />
        </mxCell>
        <mxCell id="n4nF7EyZrVtlMcvR7X5o-15" value="172.16.101.2/27" style="text;html=1;strokeColor=none;fillColor=none;align=center;verticalAlign=middle;whiteSpace=wrap;rounded=0;" parent="1" vertex="1">
          <mxGeometry x="479" y="170" width="60" height="30" as="geometry" />
        </mxCell>
        <mxCell id="n4nF7EyZrVtlMcvR7X5o-23" style="edgeStyle=orthogonalEdgeStyle;rounded=0;orthogonalLoop=1;jettySize=auto;html=1;exitX=0.5;exitY=1;exitDx=0;exitDy=0;exitPerimeter=0;entryX=0.5;entryY=0;entryDx=0;entryDy=0;entryPerimeter=0;" parent="1" source="n4nF7EyZrVtlMcvR7X5o-16" target="n4nF7EyZrVtlMcvR7X5o-21" edge="1">
          <mxGeometry relative="1" as="geometry" />
        </mxCell>
        <mxCell id="n4nF7EyZrVtlMcvR7X5o-16" value="" style="shape=mxgraph.cisco.routers.atm_router;sketch=0;html=1;pointerEvents=1;dashed=0;fillColor=#036897;strokeColor=#ffffff;strokeWidth=2;verticalLabelPosition=bottom;verticalAlign=top;align=center;outlineConnect=0;" parent="1" vertex="1">
          <mxGeometry x="290" y="730" width="78" height="53" as="geometry" />
        </mxCell>
        <mxCell id="n4nF7EyZrVtlMcvR7X5o-18" value="RED-IPS" style="text;html=1;strokeColor=none;fillColor=none;align=center;verticalAlign=middle;whiteSpace=wrap;rounded=0;" parent="1" vertex="1">
          <mxGeometry x="230" y="741.5" width="60" height="30" as="geometry" />
        </mxCell>
        <mxCell id="n4nF7EyZrVtlMcvR7X5o-19" value="172.16.120.5/30" style="text;html=1;strokeColor=none;fillColor=none;align=center;verticalAlign=middle;whiteSpace=wrap;rounded=0;rotation=90;" parent="1" vertex="1">
          <mxGeometry x="320" y="670" width="60" height="30" as="geometry" />
        </mxCell>
        <mxCell id="n4nF7EyZrVtlMcvR7X5o-20" value="&lt;div&gt;red-dmz-host-1&lt;/div&gt;&lt;div&gt;Ports: 22 (open)&lt;br&gt;&lt;/div&gt;" style="text;html=1;strokeColor=none;fillColor=none;align=center;verticalAlign=middle;whiteSpace=wrap;rounded=0;" parent="1" vertex="1">
          <mxGeometry x="448" y="260" width="100" height="30" as="geometry" />
        </mxCell>
        <mxCell id="n4nF7EyZrVtlMcvR7X5o-36" style="edgeStyle=orthogonalEdgeStyle;rounded=0;orthogonalLoop=1;jettySize=auto;html=1;exitX=0.88;exitY=0.1;exitDx=0;exitDy=0;exitPerimeter=0;entryX=0;entryY=0.5;entryDx=0;entryDy=0;entryPerimeter=0;" parent="1" source="n4nF7EyZrVtlMcvR7X5o-21" target="n4nF7EyZrVtlMcvR7X5o-35" edge="1">
          <mxGeometry relative="1" as="geometry" />
        </mxCell>
        <mxCell id="n4nF7EyZrVtlMcvR7X5o-40" style="edgeStyle=orthogonalEdgeStyle;rounded=0;orthogonalLoop=1;jettySize=auto;html=1;exitX=0;exitY=0.5;exitDx=0;exitDy=0;exitPerimeter=0;" parent="1" source="n4nF7EyZrVtlMcvR7X5o-21" edge="1">
          <mxGeometry relative="1" as="geometry">
            <mxPoint x="-100" y="1080" as="targetPoint" />
          </mxGeometry>
        </mxCell>
        <mxCell id="n4nF7EyZrVtlMcvR7X5o-21" value="" style="shape=mxgraph.cisco.routers.atm_router;sketch=0;html=1;pointerEvents=1;dashed=0;fillColor=#036897;strokeColor=#ffffff;strokeWidth=2;verticalLabelPosition=bottom;verticalAlign=top;align=center;outlineConnect=0;" parent="1" vertex="1">
          <mxGeometry x="290" y="960" width="78" height="53" as="geometry" />
        </mxCell>
        <mxCell id="n4nF7EyZrVtlMcvR7X5o-24" value="RED-POP" style="text;html=1;strokeColor=none;fillColor=none;align=center;verticalAlign=middle;whiteSpace=wrap;rounded=0;" parent="1" vertex="1">
          <mxGeometry x="299" y="1013" width="60" height="30" as="geometry" />
        </mxCell>
        <mxCell id="n4nF7EyZrVtlMcvR7X5o-25" value="172.16.120.9/30" style="text;html=1;strokeColor=none;fillColor=none;align=center;verticalAlign=middle;whiteSpace=wrap;rounded=0;rotation=90;" parent="1" vertex="1">
          <mxGeometry x="308" y="900" width="60" height="30" as="geometry" />
        </mxCell>
        <mxCell id="n4nF7EyZrVtlMcvR7X5o-42" style="edgeStyle=orthogonalEdgeStyle;rounded=0;orthogonalLoop=1;jettySize=auto;html=1;" parent="1" source="n4nF7EyZrVtlMcvR7X5o-26" edge="1">
          <mxGeometry relative="1" as="geometry">
            <mxPoint x="-291" y="1080" as="targetPoint" />
          </mxGeometry>
        </mxCell>
        <mxCell id="n4nF7EyZrVtlMcvR7X5o-26" value="" style="shape=mxgraph.cisco.computers_and_peripherals.pc;sketch=0;html=1;pointerEvents=1;dashed=0;fillColor=#036897;strokeColor=#ffffff;strokeWidth=2;verticalLabelPosition=bottom;verticalAlign=top;align=center;outlineConnect=0;" parent="1" vertex="1">
          <mxGeometry x="-330" y="1130" width="78" height="70" as="geometry" />
        </mxCell>
        <mxCell id="n4nF7EyZrVtlMcvR7X5o-43" style="edgeStyle=orthogonalEdgeStyle;rounded=0;orthogonalLoop=1;jettySize=auto;html=1;exitX=0.5;exitY=0;exitDx=0;exitDy=0;exitPerimeter=0;" parent="1" source="n4nF7EyZrVtlMcvR7X5o-27" edge="1">
          <mxGeometry relative="1" as="geometry">
            <mxPoint x="-161" y="1080" as="targetPoint" />
          </mxGeometry>
        </mxCell>
        <mxCell id="n4nF7EyZrVtlMcvR7X5o-27" value="" style="shape=mxgraph.cisco.computers_and_peripherals.pc;sketch=0;html=1;pointerEvents=1;dashed=0;fillColor=#036897;strokeColor=#ffffff;strokeWidth=2;verticalLabelPosition=bottom;verticalAlign=top;align=center;outlineConnect=0;" parent="1" vertex="1">
          <mxGeometry x="-200" y="1130" width="78" height="70" as="geometry" />
        </mxCell>
        <mxCell id="n4nF7EyZrVtlMcvR7X5o-44" style="edgeStyle=orthogonalEdgeStyle;rounded=0;orthogonalLoop=1;jettySize=auto;html=1;exitX=0.5;exitY=0;exitDx=0;exitDy=0;exitPerimeter=0;" parent="1" source="n4nF7EyZrVtlMcvR7X5o-28" edge="1">
          <mxGeometry relative="1" as="geometry">
            <mxPoint x="6" y="1080" as="targetPoint" />
          </mxGeometry>
        </mxCell>
        <mxCell id="n4nF7EyZrVtlMcvR7X5o-28" value="" style="shape=mxgraph.cisco.computers_and_peripherals.pc;sketch=0;html=1;pointerEvents=1;dashed=0;fillColor=#036897;strokeColor=#ffffff;strokeWidth=2;verticalLabelPosition=bottom;verticalAlign=top;align=center;outlineConnect=0;" parent="1" vertex="1">
          <mxGeometry x="-33" y="1130" width="78" height="70" as="geometry" />
        </mxCell>
        <mxCell id="n4nF7EyZrVtlMcvR7X5o-45" style="edgeStyle=orthogonalEdgeStyle;rounded=0;orthogonalLoop=1;jettySize=auto;html=1;exitX=0.5;exitY=0;exitDx=0;exitDy=0;exitPerimeter=0;" parent="1" source="n4nF7EyZrVtlMcvR7X5o-29" edge="1">
          <mxGeometry relative="1" as="geometry">
            <mxPoint x="179" y="1080" as="targetPoint" />
          </mxGeometry>
        </mxCell>
        <mxCell id="n4nF7EyZrVtlMcvR7X5o-29" value="" style="shape=mxgraph.cisco.computers_and_peripherals.pc;sketch=0;html=1;pointerEvents=1;dashed=0;fillColor=#036897;strokeColor=#ffffff;strokeWidth=2;verticalLabelPosition=bottom;verticalAlign=top;align=center;outlineConnect=0;" parent="1" vertex="1">
          <mxGeometry x="140" y="1130" width="78" height="70" as="geometry" />
        </mxCell>
        <mxCell id="n4nF7EyZrVtlMcvR7X5o-51" style="edgeStyle=orthogonalEdgeStyle;rounded=0;orthogonalLoop=1;jettySize=auto;html=1;exitX=1;exitY=0.5;exitDx=0;exitDy=0;exitPerimeter=0;" parent="1" source="n4nF7EyZrVtlMcvR7X5o-35" edge="1">
          <mxGeometry relative="1" as="geometry">
            <mxPoint x="1280" y="1040" as="targetPoint" />
          </mxGeometry>
        </mxCell>
        <mxCell id="n4nF7EyZrVtlMcvR7X5o-35" value="" style="shape=mxgraph.cisco.routers.atm_router;sketch=0;html=1;pointerEvents=1;dashed=0;fillColor=#036897;strokeColor=#ffffff;strokeWidth=2;verticalLabelPosition=bottom;verticalAlign=top;align=center;outlineConnect=0;" parent="1" vertex="1">
          <mxGeometry x="850" y="930" width="78" height="53" as="geometry" />
        </mxCell>
        <mxCell id="n4nF7EyZrVtlMcvR7X5o-37" value="RED-POP2" style="text;html=1;strokeColor=none;fillColor=none;align=center;verticalAlign=middle;whiteSpace=wrap;rounded=0;" parent="1" vertex="1">
          <mxGeometry x="854.5" y="910" width="69" height="30" as="geometry" />
        </mxCell>
        <mxCell id="n4nF7EyZrVtlMcvR7X5o-38" value="172.16.140.5/30" style="text;html=1;strokeColor=none;fillColor=none;align=center;verticalAlign=middle;whiteSpace=wrap;rounded=0;" parent="1" vertex="1">
          <mxGeometry x="770" y="930" width="60" height="30" as="geometry" />
        </mxCell>
        <mxCell id="n4nF7EyZrVtlMcvR7X5o-39" value="172.16.140.6/30" style="text;html=1;strokeColor=none;fillColor=none;align=center;verticalAlign=middle;whiteSpace=wrap;rounded=0;" parent="1" vertex="1">
          <mxGeometry x="365" y="940" width="60" height="30" as="geometry" />
        </mxCell>
        <mxCell id="n4nF7EyZrVtlMcvR7X5o-41" value="" style="shape=link;html=1;rounded=0;" parent="1" edge="1">
          <mxGeometry width="100" relative="1" as="geometry">
            <mxPoint x="-330" y="1080" as="sourcePoint" />
            <mxPoint x="200" y="1080" as="targetPoint" />
          </mxGeometry>
        </mxCell>
        <mxCell id="n4nF7EyZrVtlMcvR7X5o-46" value="172.16.182.126/27" style="text;html=1;strokeColor=none;fillColor=none;align=center;verticalAlign=middle;whiteSpace=wrap;rounded=0;" parent="1" vertex="1">
          <mxGeometry x="200" y="960" width="60" height="30" as="geometry" />
        </mxCell>
        <mxCell id="n4nF7EyZrVtlMcvR7X5o-47" value="&lt;div&gt;172.16.182.106&lt;/div&gt;&lt;div&gt;Host Name: red-host-1&lt;/div&gt;&lt;div&gt;Ports: 22 (open)&lt;/div&gt;&lt;div&gt;&amp;nbsp;&amp;nbsp;&amp;nbsp;&amp;nbsp;&amp;nbsp;&amp;nbsp;&amp;nbsp;&amp;nbsp;&amp;nbsp; 3389 (filtered)&lt;/div&gt;&lt;div&gt;123(open)&lt;/div&gt;&lt;div&gt;&lt;br&gt;&lt;/div&gt;" style="text;html=1;strokeColor=none;fillColor=none;align=center;verticalAlign=middle;whiteSpace=wrap;rounded=0;" parent="1" vertex="1">
          <mxGeometry x="-380" y="1230" width="138" height="30" as="geometry" />
        </mxCell>
        <mxCell id="n4nF7EyZrVtlMcvR7X5o-48" value="&lt;div&gt;172.16.182.110&lt;/div&gt;&lt;div&gt;Host Name: red-host-2***&lt;br&gt;&lt;/div&gt;&lt;div&gt;Ports: 22 (open)tcp&lt;/div&gt;&lt;div&gt;&amp;nbsp;&amp;nbsp;&amp;nbsp;&amp;nbsp;&amp;nbsp;&amp;nbsp;&amp;nbsp;&amp;nbsp; 80 (open)tcp&lt;/div&gt;&lt;div&gt;1983(open/filtered)udp&lt;/div&gt;&lt;div&gt;1984(open)udp&lt;/div&gt;&lt;div&gt;1986(open/filtered)udp&lt;/div&gt;&lt;div&gt;1989(open)udp&lt;br&gt;&lt;/div&gt;" style="text;html=1;strokeColor=none;fillColor=none;align=center;verticalAlign=middle;whiteSpace=wrap;rounded=0;" parent="1" vertex="1">
          <mxGeometry x="-231" y="1250" width="141" height="30" as="geometry" />
        </mxCell>
        <mxCell id="n4nF7EyZrVtlMcvR7X5o-49" value="&lt;div&gt;172.16.182.114&lt;/div&gt;&lt;div&gt;Host Name: red-host-3&lt;/div&gt;&lt;div&gt;Ports: 22 (open)&lt;br&gt;&lt;/div&gt;" style="text;html=1;strokeColor=none;fillColor=none;align=center;verticalAlign=middle;whiteSpace=wrap;rounded=0;" parent="1" vertex="1">
          <mxGeometry x="-70" y="1210" width="133" height="30" as="geometry" />
        </mxCell>
        <mxCell id="n4nF7EyZrVtlMcvR7X5o-50" value="&lt;div&gt;172.16.182.118&lt;/div&gt;&lt;div&gt;Host Name: red-host-4&lt;/div&gt;&lt;div&gt;Ports: 22 (open)&lt;br&gt;&lt;/div&gt;" style="text;html=1;strokeColor=none;fillColor=none;align=center;verticalAlign=middle;whiteSpace=wrap;rounded=0;" parent="1" vertex="1">
          <mxGeometry x="100" y="1210" width="151" height="30" as="geometry" />
        </mxCell>
        <mxCell id="n4nF7EyZrVtlMcvR7X5o-52" value="" style="shape=link;html=1;rounded=0;" parent="1" edge="1">
          <mxGeometry width="100" relative="1" as="geometry">
            <mxPoint x="1050" y="1040" as="sourcePoint" />
            <mxPoint x="1520" y="1040" as="targetPoint" />
          </mxGeometry>
        </mxCell>
        <mxCell id="n4nF7EyZrVtlMcvR7X5o-55" style="edgeStyle=orthogonalEdgeStyle;rounded=0;orthogonalLoop=1;jettySize=auto;html=1;" parent="1" source="n4nF7EyZrVtlMcvR7X5o-53" edge="1">
          <mxGeometry relative="1" as="geometry">
            <mxPoint x="1079" y="1040" as="targetPoint" />
          </mxGeometry>
        </mxCell>
        <mxCell id="n4nF7EyZrVtlMcvR7X5o-53" value="" style="shape=mxgraph.cisco.computers_and_peripherals.pc;sketch=0;html=1;pointerEvents=1;dashed=0;fillColor=#036897;strokeColor=#ffffff;strokeWidth=2;verticalLabelPosition=bottom;verticalAlign=top;align=center;outlineConnect=0;" parent="1" vertex="1">
          <mxGeometry x="1040" y="1080" width="78" height="70" as="geometry" />
        </mxCell>
        <mxCell id="n4nF7EyZrVtlMcvR7X5o-56" style="edgeStyle=orthogonalEdgeStyle;rounded=0;orthogonalLoop=1;jettySize=auto;html=1;" parent="1" source="n4nF7EyZrVtlMcvR7X5o-54" edge="1">
          <mxGeometry relative="1" as="geometry">
            <mxPoint x="1489" y="1040" as="targetPoint" />
          </mxGeometry>
        </mxCell>
        <mxCell id="n4nF7EyZrVtlMcvR7X5o-54" value="" style="shape=mxgraph.cisco.computers_and_peripherals.pc;sketch=0;html=1;pointerEvents=1;dashed=0;fillColor=#036897;strokeColor=#ffffff;strokeWidth=2;verticalLabelPosition=bottom;verticalAlign=top;align=center;outlineConnect=0;" parent="1" vertex="1">
          <mxGeometry x="1450" y="1080" width="78" height="70" as="geometry" />
        </mxCell>
        <mxCell id="n4nF7EyZrVtlMcvR7X5o-57" value="&lt;div&gt;172.16.140.33&lt;/div&gt;&lt;div&gt;Host Name: red-int-dmz2-host-1***&lt;/div&gt;&lt;div&gt;Ports: 22 (open)tcp&lt;/div&gt;&lt;div&gt;80 (open)tcp&lt;/div&gt;&lt;div&gt;2305 (open)tcp&lt;/div&gt;&lt;div&gt;2800 (open)tcp&lt;/div&gt;&lt;div&gt;2828 (open)tcp&lt;/div&gt;&lt;div&gt;2000(open)udp&lt;/div&gt;&lt;div&gt;2011(open)udp&lt;/div&gt;&lt;div&gt;2200(open)udp&lt;/div&gt;&lt;div&gt;2250(open)udp&lt;/div&gt;&lt;div&gt;2999(open)udp&lt;br&gt;&lt;/div&gt;&lt;div&gt;&lt;br&gt;&lt;/div&gt;" style="text;html=1;strokeColor=none;fillColor=none;align=center;verticalAlign=middle;whiteSpace=wrap;rounded=0;" parent="1" vertex="1">
          <mxGeometry x="950" y="1230" width="240" height="30" as="geometry" />
        </mxCell>
        <mxCell id="n4nF7EyZrVtlMcvR7X5o-58" value="&lt;div&gt;172.16.140.35&lt;/div&gt;&lt;div&gt;Host Name: red-int-dmz2-host-2&lt;/div&gt;&lt;div&gt;Ports: 22(open)&lt;/div&gt;&lt;div&gt;5150(filtered)&lt;br&gt;&lt;/div&gt;" style="text;html=1;strokeColor=none;fillColor=none;align=center;verticalAlign=middle;whiteSpace=wrap;rounded=0;" parent="1" vertex="1">
          <mxGeometry x="1380" y="1170" width="201" height="30" as="geometry" />
        </mxCell>
        <mxCell id="n4nF7EyZrVtlMcvR7X5o-59" value="eth1" style="text;html=1;strokeColor=none;fillColor=none;align=center;verticalAlign=middle;whiteSpace=wrap;rounded=0;" parent="1" vertex="1">
          <mxGeometry x="200" y="983" width="60" height="30" as="geometry" />
        </mxCell>
        <mxCell id="n4nF7EyZrVtlMcvR7X5o-60" value="eth0" style="text;html=1;strokeColor=none;fillColor=none;align=center;verticalAlign=middle;whiteSpace=wrap;rounded=0;rotation=90;" parent="1" vertex="1">
          <mxGeometry x="290" y="910" width="60" height="30" as="geometry" />
        </mxCell>
        <mxCell id="n4nF7EyZrVtlMcvR7X5o-61" value="eth2" style="text;html=1;strokeColor=none;fillColor=none;align=center;verticalAlign=middle;whiteSpace=wrap;rounded=0;" parent="1" vertex="1">
          <mxGeometry x="380" y="960" width="60" height="30" as="geometry" />
        </mxCell>
        <mxCell id="n4nF7EyZrVtlMcvR7X5o-62" value="172.16.182.96/27" style="text;html=1;strokeColor=none;fillColor=none;align=center;verticalAlign=middle;whiteSpace=wrap;rounded=0;" parent="1" vertex="1">
          <mxGeometry x="-70" y="1060" width="60" height="30" as="geometry" />
        </mxCell>
        <mxCell id="n4nF7EyZrVtlMcvR7X5o-66" value="REDHOSTS" style="text;html=1;strokeColor=none;fillColor=none;align=center;verticalAlign=middle;whiteSpace=wrap;rounded=0;shadow=0;" parent="1" vertex="1">
          <mxGeometry x="-100" y="820" width="60" height="30" as="geometry" />
        </mxCell>
        <mxCell id="n4nF7EyZrVtlMcvR7X5o-67" value="eth0" style="text;html=1;strokeColor=none;fillColor=none;align=center;verticalAlign=middle;whiteSpace=wrap;rounded=0;shadow=0;" parent="1" vertex="1">
          <mxGeometry x="770" y="960" width="60" height="30" as="geometry" />
        </mxCell>
        <mxCell id="n4nF7EyZrVtlMcvR7X5o-68" value="172.16.140.62/27" style="text;html=1;strokeColor=none;fillColor=none;align=center;verticalAlign=middle;whiteSpace=wrap;rounded=0;shadow=0;" parent="1" vertex="1">
          <mxGeometry x="950" y="930" width="60" height="30" as="geometry" />
        </mxCell>
        <mxCell id="n4nF7EyZrVtlMcvR7X5o-69" value="eth1" style="text;html=1;strokeColor=none;fillColor=none;align=center;verticalAlign=middle;whiteSpace=wrap;rounded=0;shadow=0;" parent="1" vertex="1">
          <mxGeometry x="950" y="960" width="60" height="30" as="geometry" />
        </mxCell>
        <mxCell id="n4nF7EyZrVtlMcvR7X5o-70" value="172.16.140.32/27" style="text;html=1;strokeColor=none;fillColor=none;align=center;verticalAlign=middle;whiteSpace=wrap;rounded=0;shadow=0;" parent="1" vertex="1">
          <mxGeometry x="1160" y="1013" width="60" height="30" as="geometry" />
        </mxCell>
        <mxCell id="n4nF7EyZrVtlMcvR7X5o-72" value="REDINTDMZ2" style="text;html=1;strokeColor=none;fillColor=none;align=center;verticalAlign=middle;whiteSpace=wrap;rounded=0;shadow=0;" parent="1" vertex="1">
          <mxGeometry x="1270" y="783" width="60" height="30" as="geometry" />
        </mxCell>
        <mxCell id="n4nF7EyZrVtlMcvR7X5o-74" value="&lt;font style=&quot;font-size: 24px;&quot;&gt;REDNET&lt;/font&gt;" style="text;html=1;strokeColor=none;fillColor=none;align=center;verticalAlign=middle;whiteSpace=wrap;rounded=0;shadow=0;" parent="1" vertex="1">
          <mxGeometry x="520" y="490" width="430" height="230" as="geometry" />
        </mxCell>
        <mxCell id="n4nF7EyZrVtlMcvR7X5o-76" value="eth1" style="text;html=1;strokeColor=none;fillColor=none;align=center;verticalAlign=middle;whiteSpace=wrap;rounded=0;shadow=0;fontSize=12;rotation=0;" parent="1" vertex="1">
          <mxGeometry x="-33.5" y="420" width="60" height="30" as="geometry" />
        </mxCell>
        <mxCell id="n4nF7EyZrVtlMcvR7X5o-75" value="&lt;font style=&quot;font-size: 12px;&quot;&gt;172.16.120.6/30&lt;/font&gt;" style="text;html=1;strokeColor=none;fillColor=none;align=center;verticalAlign=middle;whiteSpace=wrap;rounded=0;shadow=0;fontSize=24;rotation=0;" parent="1" vertex="1">
          <mxGeometry x="260" y="390" width="60" height="30" as="geometry" />
        </mxCell>
        <mxCell id="n4nF7EyZrVtlMcvR7X5o-81" value="" style="edgeStyle=orthogonalEdgeStyle;rounded=0;orthogonalLoop=1;jettySize=auto;html=1;endArrow=none;" parent="1" source="n4nF7EyZrVtlMcvR7X5o-1" target="n4nF7EyZrVtlMcvR7X5o-73" edge="1">
          <mxGeometry relative="1" as="geometry">
            <mxPoint x="330" y="440" as="targetPoint" />
            <mxPoint x="8" y="405" as="sourcePoint" />
            <Array as="points">
              <mxPoint x="-31" y="450" />
              <mxPoint x="28" y="450" />
              <mxPoint x="28" y="413" />
              <mxPoint x="440" y="413" />
            </Array>
          </mxGeometry>
        </mxCell>
        <mxCell id="n4nF7EyZrVtlMcvR7X5o-83" value="eth2" style="text;html=1;strokeColor=none;fillColor=none;align=center;verticalAlign=middle;whiteSpace=wrap;rounded=0;shadow=0;fontSize=12;" parent="1" vertex="1">
          <mxGeometry x="-1" y="380" width="60" height="30" as="geometry" />
        </mxCell>
        <mxCell id="n4nF7EyZrVtlMcvR7X5o-84" value="eth0" style="text;html=1;strokeColor=none;fillColor=none;align=center;verticalAlign=middle;whiteSpace=wrap;rounded=0;shadow=0;fontSize=12;" parent="1" vertex="1">
          <mxGeometry x="-122" y="400" width="60" height="30" as="geometry" />
        </mxCell>
        <mxCell id="n4nF7EyZrVtlMcvR7X5o-85" value="" style="ellipse;shape=cloud;whiteSpace=wrap;html=1;shadow=0;fontSize=12;fillColor=#99FFFF;" parent="1" vertex="1">
          <mxGeometry x="-530" y="270" width="352" height="270" as="geometry" />
        </mxCell>
        <mxCell id="n4nF7EyZrVtlMcvR7X5o-86" value="INTERNET" style="text;html=1;strokeColor=none;fillColor=none;align=center;verticalAlign=middle;whiteSpace=wrap;rounded=0;shadow=0;fontSize=12;" parent="1" vertex="1">
          <mxGeometry x="-384" y="390" width="60" height="30" as="geometry" />
        </mxCell>
      </root>
    </mxGraphModel>
  </diagram>
</mxfile>
